<svg id="Layer_1" data-name="Layer 1" xmlns="http://www.w3.org/2000/svg" viewBox="0 0 235.75 235.75"><defs><style>.cls-1{fill:#172335;}.cls-2{fill:#d5ff85;}</style></defs><rect class="cls-1" width="235.75" height="235.75"/><path class="cls-2" d="M149.5,49.71l36.6,36.6v51.77l-36.6,36.6H61.13v-125H149.5m3.38-8.17H53V182.85h99.92l41.39-41.39V82.93L152.88,41.54Z"/><polygon class="cls-2" points="117.72 154.46 117.72 166.01 144.5 139.23 144.5 127.68 117.72 154.46"/><polygon class="cls-2" points="117.72 133.02 117.72 144.57 144.5 117.79 144.5 106.24 117.72 133.02"/><polygon class="cls-2" points="117.72 111.58 117.72 123.13 144.5 96.35 144.5 84.8 117.72 111.58"/><polygon class="cls-2" points="96.33 63.36 88.16 71.53 126.03 71.53 134.2 63.36 96.33 63.36"/><polygon class="cls-2" points="91.86 116 91.86 127.55 144.5 74.91 144.5 63.36 91.86 116"/><polygon class="cls-2" points="76.83 130.92 76.83 142.47 84.48 134.82 84.48 123.27 76.83 130.92"/></svg>