<svg xmlns="http://www.w3.org/2000/svg" viewBox="0 0 315.69 160.89"><defs><style>.cls-1{fill:#d5ff85;}</style></defs><g id="Layer_2" data-name="Layer 2"><g id="Layer_1-2" data-name="Layer 1"><path class="cls-1" d="M96.54,8.2l36.61,36.6V96.57l-36.61,36.6H8.17V8.17H96.54M99.92,0H0V141.34H99.92L141.31,100V41.42L99.92,0Z"/><polygon class="cls-1" points="64.76 112.95 64.76 124.5 91.54 97.72 91.54 86.17 64.76 112.95"/><polygon class="cls-1" points="64.76 91.51 64.76 103.06 91.54 76.28 91.54 64.73 64.76 91.51"/><polygon class="cls-1" points="64.76 70.07 64.76 81.62 91.54 54.84 91.54 43.29 64.76 70.07"/><polygon class="cls-1" points="43.37 21.85 35.21 30.02 73.08 30.02 81.24 21.85 43.37 21.85"/><polygon class="cls-1" points="38.9 74.49 38.9 86.04 91.54 33.4 91.54 21.85 38.9 74.49"/><polygon class="cls-1" points="23.88 89.41 23.88 100.96 31.52 93.31 31.52 81.76 23.88 89.41"/><polygon class="cls-1" points="144.71 141.34 130.76 141.34 120.82 131.39 134.76 131.39 144.71 141.34"/><path class="cls-1" d="M157.52,141.29l-9.9-9.9v-9l9.9-9.9h31.26v-7.06l-5.49-5.49H150.56V92.29h36.16l9.9,9.9v39.1Zm31.26-21.17H161l-5.49,5.49v2.55l5.49,5.49h27.83Z"/><path class="cls-1" d="M215.24,141.29v19.6H207.4V92.29h39.1l9.9,9.9v29.2l-9.9,9.9Zm33.32-35.87-5.49-5.49H215.24v33.72h27.83l5.49-5.49Z"/><path class="cls-1" d="M274.53,141.29v19.6h-7.84V92.29h39.1l9.9,9.9v29.2l-9.9,9.9Zm33.32-35.87-5.49-5.49H274.53v33.72h27.83l5.49-5.49Z"/></g></g></svg>