<svg xmlns="http://www.w3.org/2000/svg" viewBox="0 0 141.31 141.34"><defs><style>.cls-1{fill:#d5ff85;}</style></defs><g id="Layer_2" data-name="Layer 2"><g id="Layer_1-2" data-name="Layer 1"><path class="cls-1" d="M96.5,8.2l36.6,36.6V96.57l-36.6,36.6H8.13V8.17H96.5M99.88,0H0V141.34H99.92L141.31,100V41.42L99.88,0Z"/><polygon class="cls-1" points="64.72 112.95 64.72 124.5 91.5 97.72 91.5 86.17 64.72 112.95"/><polygon class="cls-1" points="64.72 91.51 64.72 103.06 91.5 76.28 91.5 64.73 64.72 91.51"/><polygon class="cls-1" points="64.72 70.07 64.72 81.62 91.5 54.84 91.5 43.29 64.72 70.07"/><polygon class="cls-1" points="43.33 21.85 35.16 30.02 73.03 30.02 81.2 21.85 43.33 21.85"/><polygon class="cls-1" points="38.86 74.49 38.86 86.04 91.5 33.4 91.5 21.85 38.86 74.49"/><polygon class="cls-1" points="23.83 89.41 23.83 100.96 31.48 93.31 31.48 81.76 23.83 89.41"/></g></g></svg>